/vscmnt/brussel_pixiu_data/_data_brussel/112/vsc11236/PredSimResults/SUBJ04mtu3D/weighted-expIG/worker_02.mot
version=1
nRows=11
nColumns=50
inDegrees=yes
endheader
                time	         pelvis_tilt	         pelvis_list	     pelvis_rotation	           pelvis_tx	           pelvis_ty	           pelvis_tz	       hip_flexion_r	     hip_adduction_r	      hip_rotation_r	        knee_angle_r	       ankle_angle_r	         mtp_angle_r	       hip_flexion_l	     hip_adduction_l	      hip_rotation_l	        knee_angle_l	       ankle_angle_l	         mtp_angle_l	    lumbar_extension	      lumbar_bending	     lumbar_rotation	 ercspn_r/activation	 intobl_r/activation	 extobl_r/activation	    abd_r/activation	    add_r/activation	hamstrings_r/activation	bifemsh_r/activation	glut_max_r/activation	iliopsoas_r/activation	rect_fem_r/activation	  vasti_r/activation	gastroc_r/activation	 soleus_r/activation	tib_ant_r/activation	 ercspn_l/activation	 intobl_l/activation	 extobl_l/activation	    abd_l/activation	    add_l/activation	hamstrings_l/activation	bifemsh_l/activation	glut_max_l/activation	iliopsoas_l/activation	rect_fem_l/activation	  vasti_l/activation	gastroc_l/activation	 soleus_l/activation	tib_ant_l/activation	
          0.00000000	         -5.38132505	         -4.72535205	         12.21014506	          0.00000000	          0.88377794	         -0.02085844	         24.09527916	          0.49778935	         -4.67249538	          2.16210136	          5.08933746	          0.22450932	         -8.39795422	         -4.18826951	         15.39714419	         -8.85831122	         12.47478265	         23.25774469	         -2.93343370	          1.80250075	         -1.01776492	          0.07961755	          0.14998293	          0.01868646	          0.01949042	          0.12147420	          0.02064672	          0.01000011	          0.01000023	          0.05297367	          0.01231728	          0.03061875	          0.01000001	          0.01000001	          0.26019635	          0.04348614	          0.01000000	          0.01000001	          0.08345911	          0.01000029	          0.01713296	          0.12928779	          0.06503774	          0.30625780	          0.01000005	          0.01000001	          0.29455879	          0.27342491	          0.01268879	
          0.01390249	         -5.49540756	         -4.60733554	         12.04522847	          0.01483141	          0.88194421	         -0.01969662	         23.67810538	          0.78291822	         -3.38733874	          1.50867867	          4.78374704	          0.20974580	         -8.62258565	         -4.03804526	         14.54463688	        -10.17308144	         12.25311622	         24.90852715	         -2.64567930	          2.08829899	         -1.26484606	          0.06798198	          0.16414740	          0.01517118	          0.01582390	          0.10938431	          0.02571060	          0.03615397	          0.01382289	          0.04300830	          0.01000022	          0.02485878	          0.01517186	          0.01337413	          0.28309922	          0.06264988	          0.01000000	          0.01000001	          0.06775884	          0.02593190	          0.01466685	          0.10496627	          0.05468198	          0.27500560	          0.01000011	          0.01000001	          0.27104909	          0.26712038	          0.01030179	
          0.02780499	         -5.59366016	         -4.48842634	         11.80775963	          0.02996560	          0.88035590	         -0.01843597	         23.11535930	          1.07090397	         -2.14156736	          1.07115708	          4.29007417	          0.20699855	         -8.76646637	         -3.86520046	         13.64597412	        -11.70143430	         11.88856997	         26.60126861	         -2.34827638	          2.39667487	         -1.50481513	          0.06807443	          0.16098811	          0.01231719	          0.03589831	          0.08880704	          0.02957805	          0.05683326	          0.02355005	          0.03491761	          0.01000003	          0.02018237	          0.01231775	          0.01085820	          0.31494553	          0.08548947	          0.01000000	          0.01000001	          0.05501209	          0.03376196	          0.01297622	          0.08522010	          0.04439525	          0.23620531	          0.01000021	          0.01000003	          0.24491786	          0.25235765	          0.00999999	
          0.04170748	         -5.67649202	         -4.36689502	         11.49187426	          0.04522169	          0.87921688	         -0.01707475	         22.46733623	          1.37525394	         -0.97427608	          0.76590416	          3.77420124	          0.19033706	         -8.77813532	         -3.65984744	         12.69429860	        -13.49783329	         11.31713490	         28.32037805	         -2.05875548	          2.72760228	         -1.73593249	          0.06779221	          0.13960777	          0.01000009	          0.05709843	          0.07210087	          0.03089418	          0.04614191	          0.03356805	          0.02834893	          0.01000007	          0.01655120	          0.01000059	          0.01000006	          0.33834088	          0.10694674	          0.01000000	          0.01000001	          0.04466325	          0.03524621	          0.01309768	          0.06918857	          0.03604365	          0.19982034	          0.01000036	          0.01000006	          0.20116776	          0.23108949	          0.01000000	
          0.05560997	         -5.74382081	         -4.24200515	         11.09969832	          0.06047849	          0.87865389	         -0.01563281	         21.77088737	          1.69061474	          0.10852728	          0.49905325	          3.36707969	          0.17739127	         -8.63407794	         -3.42167594	         11.67351940	        -15.57190786	         10.50627699	         29.99368351	         -1.78498245	          3.07904024	         -1.95504025	          0.06300195	          0.11334494	          0.01000000	          0.07720738	          0.06078676	          0.03641823	          0.03746183	          0.03384745	          0.02301595	          0.01000004	          0.01627623	          0.01000004	          0.01000003	          0.35521793	          0.12056920	          0.01000000	          0.01000001	          0.03626122	          0.03739914	          0.01668177	          0.05617289	          0.02926314	          0.17686764	          0.01000011	          0.01000003	          0.16332420	          0.19158390	          0.01000000	
          0.06951246	         -5.79570457	         -4.10859482	         10.63706610	          0.07563957	          0.87868474	         -0.01412893	         21.04339179	          2.00394748	          1.10777971	          0.24380289	          3.08213590	          0.16655830	         -8.32061342	         -3.15032676	         10.56791416	        -17.92677375	          9.48203892	         31.47590905	         -1.53365982	          3.44140761	         -2.15845278	          0.05591879	          0.09202258	          0.01000001	          0.09880020	          0.06440021	          0.04010223	          0.03041468	          0.02748021	          0.01868620	          0.01000003	          0.01577147	          0.01000006	          0.01000003	          0.35932237	          0.13135625	          0.01000000	          0.01000002	          0.02943978	          0.04760936	          0.02169539	          0.04560576	          0.02375818	          0.16007631	          0.01000004	          0.01000001	          0.13259975	          0.15554326	          0.01000000	
          0.08341496	         -5.83240474	         -3.95848058	         10.11045388	          0.09061447	          0.87927533	         -0.01258301	         20.29165617	          2.29846972	          2.02460702	         -0.00542381	          2.92579513	          0.15816807	         -7.82598114	         -2.84592234	          9.35795594	        -20.56092184	          8.29379527	         32.58098838	         -1.31255735	          3.80210180	         -2.34409878	          0.04827094	          0.07471136	          0.01000001	          0.11200409	          0.05426320	          0.04282658	          0.02469332	          0.02231072	          0.01517097	          0.01000003	          0.01577832	          0.01000010	          0.01000006	          0.35353324	          0.13626863	          0.01000000	          0.01000002	          0.02390159	          0.05773662	          0.02708493	          0.03702725	          0.01928880	          0.14404595	          0.01000002	          0.01000000	          0.10765516	          0.12628255	          0.01000000	
          0.09731745	         -5.85462630	         -3.77817868	          9.52599565	          0.10532796	          0.88039100	         -0.01101420	         19.51440540	          2.55354040	          2.86066390	         -0.23491601	          2.87427366	          0.15354639	         -7.14213113	         -2.51009136	          8.02654339	        -23.46782555	          7.01311577	         33.07501205	         -1.12956728	          4.14351464	         -2.51086304	          0.04436394	          0.06065673	          0.01000001	          0.11606101	          0.04405528	          0.04570711	          0.02004851	          0.01823907	          0.01231702	          0.01000002	          0.01360373	          0.01000015	          0.01000009	          0.34174271	          0.13552024	          0.01000000	          0.01000003	          0.01940524	          0.06613003	          0.02934366	          0.04030522	          0.01566021	          0.12938005	          0.01000001	          0.01000000	          0.08740314	          0.10252636	          0.01000000	
          0.11121994	         -5.86243901	         -3.55351518	          8.88916222	          0.11975319	          0.88196478	         -0.00943548	         18.71030411	          2.75077520	          3.62977232	         -0.43400226	          2.88635815	          0.15246592	         -6.26765977	         -2.14940711	          6.58375348	        -26.63309931	          5.63753083	         32.89463194	         -0.98810798	          4.44758280	         -2.65716787	          0.04144619	          0.04924604	          0.01000001	          0.11241549	          0.03576764	          0.04823735	          0.01627890	          0.01702127	          0.01000001	          0.01000002	          0.01104504	          0.01000023	          0.01000012	          0.32840923	          0.13202454	          0.01000000	          0.01000004	          0.01575474	          0.07651698	          0.02904605	          0.03792431	          0.01271422	          0.11775898	          0.01000001	          0.01000000	          0.07096091	          0.08323916	          0.01000000	
          0.12512243	         -5.85527549	         -3.27358104	          8.20375047	          0.13389781	          0.88389229	         -0.00785397	         17.88209454	          2.87620679	          4.34381059	         -0.60485867	          2.93523712	          0.15413932	         -5.21396087	         -1.77354206	          5.06455572	        -30.00460979	          4.07216687	         32.15530714	         -0.88792466	          4.69991894	         -2.78067487	          0.03364943	          0.03998191	          0.01000001	          0.10392723	          0.02903906	          0.05060932	          0.01322772	          0.01624040	          0.01000001	          0.01000002	          0.01000120	          0.01000012	          0.01000007	          0.31602622	          0.12713585	          0.01000000	          0.01000004	          0.01279097	          0.08951357	          0.02707574	          0.04380566	          0.01032243	          0.11003182	          0.01000001	          0.01000000	          0.05761179	          0.06758026	          0.01000000	
          0.13902493	         -5.83247173	         -2.93160881	          7.47268600	          0.14776635	          0.88604822	         -0.00626930	         17.04239207	          2.92108660	          5.01382080	         -0.76784252	          3.01039264	          0.15778730	         -3.99728922	         -1.39151742	          3.50281160	        -33.52249154	          2.28221504	         30.89125080	         -0.82931275	          4.88999075	         -2.88021734	          0.02731933	          0.03246055	          0.01000001	          0.09798878	          0.02357625	          0.05217641	          0.04228885	          0.01773268	          0.01000001	          0.01000002	          0.01000141	          0.01000011	          0.01000006	          0.30468452	          0.12245264	          0.01000000	          0.01000004	          0.01038474	          0.10908835	          0.02198249	          0.05180699	          0.00999999	          0.10476406	          0.01000001	          0.00999999	          0.04677390	          0.05486710	          0.01878436	
